# xmcd
#
# Track frame offsets: 
#        150
#        15944
#        35356
#        52770
#        68482
#        87119
#        107643
#        124022
#        140873
#        163971
#
# Disc length: 2557 seconds
#
# Revision: 2
# Processed by: cddbd v1.5.2PL0 Copyright (c) Steve Scherf et al.
# Submitted via: ExactAudioCopyFreeDBPlugin 1.0
#
DISCID=7809fb0a
DTITLE=Pino Daniele - Il Mio Nome è Pino Daniele e Vivo Qui
DYEAR=2007
DGENRE=Pop
TTITLE0=Back Home
TTITLE1=Rhum And Coca
TTITLE2=Il Giorno E La Notte
TTITLE3=Salvami
TTITLE4=Vento Di Passione
TTITLE5=Mardi Gras
TTITLE6=Blues Del Peccatore
TTITLE7=L'Africano
TTITLE8=Ischia Sole Nascente
TTITLE9=Passo Napoletano
EXTD=
EXTT0=
EXTT1=
EXTT2=
EXTT3=
EXTT4=
EXTT5=
EXTT6=
EXTT7=
EXTT8=
EXTT9=
PLAYORDER=
